<svg xmlns="http://www.w3.org/2000/svg" viewBox="0 0 210 210"><defs><radialGradient id="a" cx=".5" cy=".5" r=".5" fx=".614" fy=".508"><stop offset="0%" stop-color="#ea2f48"/><stop offset=".5" stop-color="#f28ca2" stop-opacity="100"><animate attributeName="offset" dur="5s" repeatCount="indefinite" values=".4;.7;.4"/></stop><stop offset="100%" stop-color="#fff" stop-opacity="0"/></radialGradient><radialGradient id="b" cx=".5" cy=".5" r=".5" fx=".425" fy=".322"><stop offset="0%" stop-color="#ffdc68"/><stop offset="70%" stop-color="#fff" stop-opacity="0"/><stop offset="100%" stop-color="#fff" stop-opacity="0"/></radialGradient><radialGradient id="c" cx=".5" cy=".5" r=".5" fx=".531" fy=".516"><stop offset="0%" stop-color="#7cd8ef"/><stop offset="60%" stop-color="#fff" stop-opacity="0"/><stop offset="100%" stop-color="#fff" stop-opacity="0"/></radialGradient><path id="d" d="M105.072 132.808c.773 1.311-1.386 1.688-2.178 1.284-2.149-1.096-1.76-4.11-.389-5.641 2.453-2.74 6.796-2.013 9.104.507 3.385 3.697 2.282 9.523-1.402 12.565-4.912 4.055-12.265 2.561-16.028-2.297-4.736-6.114-2.844-15.014 3.192-19.49 7.31-5.422 17.767-3.13 22.952 4.087 6.112 8.505 3.417 20.522-4.982 26.415-9.697 6.803-23.28 3.704-29.877-5.878-7.497-10.888-3.993-26.037 6.773-33.34 12.078-8.19 28.796-4.281 36.801 7.67 8.887 13.266 4.572 31.556-8.563 40.263-14.456 9.583-34.317 4.862-43.726-9.459-10.28-15.644-5.152-37.077 10.353-47.188 16.834-10.977 39.84-5.443 50.651 11.249 11.674 18.021 5.734 42.6-12.144 54.113-19.21 12.371-45.361 6.024-57.575-13.04-13.07-20.397-6.315-48.122 13.934-61.037 21.585-13.767 50.885-6.606 64.5 14.83 14.465 22.772 6.897 53.646-15.724 67.962-23.96 15.163-56.41 7.188-71.425-16.62-15.861-25.148-7.479-59.171 17.515-74.887 26.335-16.56 61.933-7.77 78.35 18.41 17.257 27.523 8.06 64.696-19.306 81.812-28.71 17.956-67.458 8.352-85.274-20.2C31.949 135 41.96 94.676 71.7 76.16c31.084-19.353 72.983-8.935 92.198 21.991 20.052 32.272 9.226 75.746-22.886 95.66-33.459 20.751-78.508 9.518-99.123-23.78C20.44 135.384 32.08 88.76 66.566 67.445c35.833-22.148 84.033-10.1 106.047 25.572 22.847 37.02 10.392 86.796-26.467 109.51-38.207 23.545-89.558 10.683-112.972-27.362C8.93 135.77 22.199 82.844 61.431 58.73c40.582-24.943 95.084-11.266 119.897 29.153 25.642 41.768 11.558 97.846-30.048 123.359-42.955 26.34-100.609 11.849-126.82-30.943C-2.58 136.157 12.318 76.928 56.296 50.016c45.33-27.738 106.135-12.432 133.746 32.733 28.437 46.517 12.723 108.898-33.628 137.209" style="fill:none;fill-rule:evenodd;stroke:none" transform="translate(-3.325 -25.15)"/></defs><rect width="210" height="210" fill="url(#a)" rx="15" ry="15"/><rect width="210" height="210" fill="url(#b)" rx="15" ry="15"/><rect width="210" height="210" fill="url(#c)" rx="15" ry="15"/><text fill="#1d1f20" font-family="monospace" font-size="6" letter-spacing="1"><textPath xml:space="preserve" href="#d">                                                                                                                        A friend requires loyal dedication and intimacy</textPath></text></svg>